<svg xmlns="http://www.w3.org/2000/svg" xmlns:xlink="http://www.w3.org/1999/xlink" width="84" height="44" viewBox="0 0 84 44">
    <defs>
        <path id="b" d="M17.108 17.156a5.26 5.26 0 0 0-.778-7.397c-1.381-1.12-4.683-1.89-9.903-2.315a1 1 0 0 0-1.04 1.283c1.5 5.019 2.942 8.087 4.324 9.206a5.26 5.26 0 0 0 7.397-.777z"/>
        <filter id="a" width="197.8%" height="210.5%" x="-48.9%" y="-46.7%" filterUnits="objectBoundingBox">
            <feOffset dy="1" in="SourceAlpha" result="shadowOffsetOuter1"/>
            <feGaussianBlur in="shadowOffsetOuter1" result="shadowBlurOuter1" stdDeviation="2"/>
            <feColorMatrix in="shadowBlurOuter1" values="0 0 0 0 0 0 0 0 0 0 0 0 0 0 0 0 0 0 0.1 0"/>
        </filter>
        <path id="d" d="M16.002 16.839a5.26 5.26 0 0 0 6.567-3.492c.52-1.7-.001-5.05-1.564-10.05a1 1 0 0 0-1.579-.482c-4.09 3.27-6.396 5.756-6.916 7.457a5.26 5.26 0 0 0 3.492 6.567z"/>
        <filter id="c" width="224%" height="185.8%" x="-62%" y="-36.3%" filterUnits="objectBoundingBox">
            <feOffset dy="1" in="SourceAlpha" result="shadowOffsetOuter1"/>
            <feGaussianBlur in="shadowOffsetOuter1" result="shadowBlurOuter1" stdDeviation="2"/>
            <feColorMatrix in="shadowBlurOuter1" values="0 0 0 0 0 0 0 0 0 0 0 0 0 0 0 0 0 0 0.1 0"/>
        </filter>
        <path id="f" d="M18.489 17.156a5.26 5.26 0 0 0 7.397.777c1.382-1.119 2.823-4.187 4.323-9.206a1 1 0 0 0-1.039-1.283c-5.22.424-8.522 1.196-9.904 2.315a5.26 5.26 0 0 0-.777 7.397z"/>
        <filter id="e" width="197.8%" height="210.5%" x="-48.9%" y="-46.7%" filterUnits="objectBoundingBox">
            <feOffset dy="1" in="SourceAlpha" result="shadowOffsetOuter1"/>
            <feGaussianBlur in="shadowOffsetOuter1" result="shadowBlurOuter1" stdDeviation="2"/>
            <feColorMatrix in="shadowBlurOuter1" values="0 0 0 0 0 0 0 0 0 0 0 0 0 0 0 0 0 0 0.1 0"/>
        </filter>
        <path id="h" d="M18.35 15.981a5.26 5.26 0 0 0 6.796 3.026c1.66-.638 3.978-3.11 6.956-7.42a1 1 0 0 0-.592-1.542c-5.096-1.21-8.474-1.496-10.134-.859a5.26 5.26 0 0 0-3.025 6.795z"/>
        <filter id="g" width="187.2%" height="223.8%" x="-43.6%" y="-52.4%" filterUnits="objectBoundingBox">
            <feOffset dy="1" in="SourceAlpha" result="shadowOffsetOuter1"/>
            <feGaussianBlur in="shadowOffsetOuter1" result="shadowBlurOuter1" stdDeviation="2"/>
            <feColorMatrix in="shadowBlurOuter1" values="0 0 0 0 0 0 0 0 0 0 0 0 0 0 0 0 0 0 0.1 0"/>
        </filter>
        <path id="j" d="M18.03 15.682a5.26 5.26 0 0 0 3.941 6.308c1.732.4 5.038-.354 9.916-2.261a1 1 0 0 0 .372-1.609c-3.549-3.853-6.19-5.98-7.922-6.38a5.26 5.26 0 0 0-6.307 3.942z"/>
        <filter id="i" width="184.8%" height="223.9%" x="-42.4%" y="-52.4%" filterUnits="objectBoundingBox">
            <feOffset dy="1" in="SourceAlpha" result="shadowOffsetOuter1"/>
            <feGaussianBlur in="shadowOffsetOuter1" result="shadowBlurOuter1" stdDeviation="2"/>
            <feColorMatrix in="shadowBlurOuter1" values="0 0 0 0 0 0 0 0 0 0 0 0 0 0 0 0 0 0 0.1 0"/>
        </filter>
        <path id="l" d="M18.536 17.509a5.26 5.26 0 0 0 1.925 7.184c1.54.89 4.92 1.135 10.144.737A1 1 0 0 0 31.43 24c-2.267-4.722-4.17-7.527-5.71-8.416a5.26 5.26 0 0 0-7.184 1.925z"/>
        <filter id="k" width="191.5%" height="221.1%" x="-45.7%" y="-51.2%" filterUnits="objectBoundingBox">
            <feOffset dy="1" in="SourceAlpha" result="shadowOffsetOuter1"/>
            <feGaussianBlur in="shadowOffsetOuter1" result="shadowBlurOuter1" stdDeviation="2"/>
            <feColorMatrix in="shadowBlurOuter1" values="0 0 0 0 0 0 0 0 0 0 0 0 0 0 0 0 0 0 0.1 0"/>
        </filter>
        <path id="n" d="M16.901 18.722a5.26 5.26 0 0 0-2.421 7.033c.779 1.598 3.445 3.692 7.997 6.283a1 1 0 0 0 1.484-.724c.761-5.182.752-8.572-.027-10.17a5.26 5.26 0 0 0-7.033-2.422z"/>
        <filter id="m" width="222.9%" height="189.3%" x="-61.4%" y="-37.8%" filterUnits="objectBoundingBox">
            <feOffset dy="1" in="SourceAlpha" result="shadowOffsetOuter1"/>
            <feGaussianBlur in="shadowOffsetOuter1" result="shadowBlurOuter1" stdDeviation="2"/>
            <feColorMatrix in="shadowBlurOuter1" values="0 0 0 0 0 0 0 0 0 0 0 0 0 0 0 0 0 0 0.1 0"/>
        </filter>
        <path id="p" d="M15.743 14.325a5.26 5.26 0 0 0-4.88-5.613c-1.773-.124-4.92 1.137-9.44 3.784a1 1 0 0 0-.115 1.647c4.108 3.25 7.048 4.938 8.822 5.062a5.26 5.26 0 0 0 5.613-4.88z"/>
        <filter id="o" width="183.5%" height="223.6%" x="-41.7%" y="-52.3%" filterUnits="objectBoundingBox">
            <feOffset dy="1" in="SourceAlpha" result="shadowOffsetOuter1"/>
            <feGaussianBlur in="shadowOffsetOuter1" result="shadowBlurOuter1" stdDeviation="2"/>
            <feColorMatrix in="shadowBlurOuter1" values="0 0 0 0 0 0 0 0 0 0 0 0 0 0 0 0 0 0 0.1 0"/>
        </filter>
        <path id="r" d="M17.038 18.553a5.26 5.26 0 0 0-7.433.26c-1.213 1.3-2.213 4.54-3 9.718a1 1 0 0 0 1.207 1.126c5.111-1.146 8.273-2.37 9.486-3.67a5.26 5.26 0 0 0-.26-7.434z"/>
        <filter id="q" width="205.6%" height="201.4%" x="-52.8%" y="-42.9%" filterUnits="objectBoundingBox">
            <feOffset dy="1" in="SourceAlpha" result="shadowOffsetOuter1"/>
            <feGaussianBlur in="shadowOffsetOuter1" result="shadowBlurOuter1" stdDeviation="2"/>
            <feColorMatrix in="shadowBlurOuter1" values="0 0 0 0 0 0 0 0 0 0 0 0 0 0 0 0 0 0 0.1 0"/>
        </filter>
        <path id="t" d="M16.39 15.682a5.26 5.26 0 0 0-6.308-3.941c-1.732.4-4.372 2.526-7.921 6.379a1 1 0 0 0 .371 1.609c4.879 1.907 8.184 2.66 9.917 2.26a5.26 5.26 0 0 0 3.941-6.307z"/>
        <filter id="s" width="184.8%" height="223.9%" x="-42.4%" y="-52.4%" filterUnits="objectBoundingBox">
            <feOffset dy="1" in="SourceAlpha" result="shadowOffsetOuter1"/>
            <feGaussianBlur in="shadowOffsetOuter1" result="shadowBlurOuter1" stdDeviation="2"/>
            <feColorMatrix in="shadowBlurOuter1" values="0 0 0 0 0 0 0 0 0 0 0 0 0 0 0 0 0 0 0.1 0"/>
        </filter>
        <path id="v" d="M17.108 17.156a5.26 5.26 0 0 0-.778-7.397c-1.381-1.12-4.683-1.89-9.903-2.315a1 1 0 0 0-1.04 1.283c1.5 5.019 2.942 8.087 4.324 9.206a5.26 5.26 0 0 0 7.397-.777z"/>
        <filter id="u" width="197.8%" height="210.5%" x="-48.9%" y="-46.7%" filterUnits="objectBoundingBox">
            <feOffset dy="1" in="SourceAlpha" result="shadowOffsetOuter1"/>
            <feGaussianBlur in="shadowOffsetOuter1" result="shadowBlurOuter1" stdDeviation="2"/>
            <feColorMatrix in="shadowBlurOuter1" values="0 0 0 0 0 0 0 0 0 0 0 0 0 0 0 0 0 0 0.1 0"/>
        </filter>
        <path id="x" d="M16.002 16.839a5.26 5.26 0 0 0 6.567-3.492c.52-1.7-.001-5.05-1.564-10.05a1 1 0 0 0-1.579-.482c-4.09 3.27-6.396 5.756-6.916 7.457a5.26 5.26 0 0 0 3.492 6.567z"/>
        <filter id="w" width="224%" height="185.8%" x="-62%" y="-36.3%" filterUnits="objectBoundingBox">
            <feOffset dy="1" in="SourceAlpha" result="shadowOffsetOuter1"/>
            <feGaussianBlur in="shadowOffsetOuter1" result="shadowBlurOuter1" stdDeviation="2"/>
            <feColorMatrix in="shadowBlurOuter1" values="0 0 0 0 0 0 0 0 0 0 0 0 0 0 0 0 0 0 0.1 0"/>
        </filter>
        <path id="z" d="M18.489 17.156a5.26 5.26 0 0 0 7.397.777c1.382-1.119 2.823-4.187 4.323-9.206a1 1 0 0 0-1.039-1.283c-5.22.424-8.522 1.196-9.904 2.315a5.26 5.26 0 0 0-.777 7.397z"/>
        <filter id="y" width="197.8%" height="210.5%" x="-48.9%" y="-46.7%" filterUnits="objectBoundingBox">
            <feOffset dy="1" in="SourceAlpha" result="shadowOffsetOuter1"/>
            <feGaussianBlur in="shadowOffsetOuter1" result="shadowBlurOuter1" stdDeviation="2"/>
            <feColorMatrix in="shadowBlurOuter1" values="0 0 0 0 0 0 0 0 0 0 0 0 0 0 0 0 0 0 0.1 0"/>
        </filter>
        <path id="B" d="M18.35 15.981a5.26 5.26 0 0 0 6.796 3.026c1.66-.638 3.978-3.11 6.956-7.42a1 1 0 0 0-.592-1.542c-5.096-1.21-8.474-1.496-10.134-.859a5.26 5.26 0 0 0-3.025 6.795z"/>
        <filter id="A" width="187.2%" height="223.8%" x="-43.6%" y="-52.4%" filterUnits="objectBoundingBox">
            <feOffset dy="1" in="SourceAlpha" result="shadowOffsetOuter1"/>
            <feGaussianBlur in="shadowOffsetOuter1" result="shadowBlurOuter1" stdDeviation="2"/>
            <feColorMatrix in="shadowBlurOuter1" values="0 0 0 0 0 0 0 0 0 0 0 0 0 0 0 0 0 0 0.1 0"/>
        </filter>
        <path id="D" d="M18.03 15.682a5.26 5.26 0 0 0 3.941 6.308c1.732.4 5.038-.354 9.916-2.261a1 1 0 0 0 .372-1.609c-3.549-3.853-6.19-5.98-7.922-6.38a5.26 5.26 0 0 0-6.307 3.942z"/>
        <filter id="C" width="184.8%" height="223.9%" x="-42.4%" y="-52.4%" filterUnits="objectBoundingBox">
            <feOffset dy="1" in="SourceAlpha" result="shadowOffsetOuter1"/>
            <feGaussianBlur in="shadowOffsetOuter1" result="shadowBlurOuter1" stdDeviation="2"/>
            <feColorMatrix in="shadowBlurOuter1" values="0 0 0 0 0 0 0 0 0 0 0 0 0 0 0 0 0 0 0.1 0"/>
        </filter>
        <path id="F" d="M18.536 17.509a5.26 5.26 0 0 0 1.925 7.184c1.54.89 4.92 1.135 10.144.737A1 1 0 0 0 31.43 24c-2.267-4.722-4.17-7.527-5.71-8.416a5.26 5.26 0 0 0-7.184 1.925z"/>
        <filter id="E" width="191.5%" height="221.1%" x="-45.7%" y="-51.2%" filterUnits="objectBoundingBox">
            <feOffset dy="1" in="SourceAlpha" result="shadowOffsetOuter1"/>
            <feGaussianBlur in="shadowOffsetOuter1" result="shadowBlurOuter1" stdDeviation="2"/>
            <feColorMatrix in="shadowBlurOuter1" values="0 0 0 0 0 0 0 0 0 0 0 0 0 0 0 0 0 0 0.1 0"/>
        </filter>
        <path id="H" d="M16.901 18.722a5.26 5.26 0 0 0-2.421 7.033c.779 1.598 3.445 3.692 7.997 6.283a1 1 0 0 0 1.484-.724c.761-5.182.752-8.572-.027-10.17a5.26 5.26 0 0 0-7.033-2.422z"/>
        <filter id="G" width="222.9%" height="189.3%" x="-61.4%" y="-37.8%" filterUnits="objectBoundingBox">
            <feOffset dy="1" in="SourceAlpha" result="shadowOffsetOuter1"/>
            <feGaussianBlur in="shadowOffsetOuter1" result="shadowBlurOuter1" stdDeviation="2"/>
            <feColorMatrix in="shadowBlurOuter1" values="0 0 0 0 0 0 0 0 0 0 0 0 0 0 0 0 0 0 0.1 0"/>
        </filter>
        <path id="J" d="M15.743 14.325a5.26 5.26 0 0 0-4.88-5.613c-1.773-.124-4.92 1.137-9.44 3.784a1 1 0 0 0-.115 1.647c4.108 3.25 7.048 4.938 8.822 5.062a5.26 5.26 0 0 0 5.613-4.88z"/>
        <filter id="I" width="183.5%" height="223.6%" x="-41.7%" y="-52.3%" filterUnits="objectBoundingBox">
            <feOffset dy="1" in="SourceAlpha" result="shadowOffsetOuter1"/>
            <feGaussianBlur in="shadowOffsetOuter1" result="shadowBlurOuter1" stdDeviation="2"/>
            <feColorMatrix in="shadowBlurOuter1" values="0 0 0 0 0 0 0 0 0 0 0 0 0 0 0 0 0 0 0.1 0"/>
        </filter>
        <path id="L" d="M17.038 18.553a5.26 5.26 0 0 0-7.433.26c-1.213 1.3-2.213 4.54-3 9.718a1 1 0 0 0 1.207 1.126c5.111-1.146 8.273-2.37 9.486-3.67a5.26 5.26 0 0 0-.26-7.434z"/>
        <filter id="K" width="205.6%" height="201.4%" x="-52.8%" y="-42.9%" filterUnits="objectBoundingBox">
            <feOffset dy="1" in="SourceAlpha" result="shadowOffsetOuter1"/>
            <feGaussianBlur in="shadowOffsetOuter1" result="shadowBlurOuter1" stdDeviation="2"/>
            <feColorMatrix in="shadowBlurOuter1" values="0 0 0 0 0 0 0 0 0 0 0 0 0 0 0 0 0 0 0.1 0"/>
        </filter>
        <path id="N" d="M16.39 15.682a5.26 5.26 0 0 0-6.308-3.941c-1.732.4-4.372 2.526-7.921 6.379a1 1 0 0 0 .371 1.609c4.879 1.907 8.184 2.66 9.917 2.26a5.26 5.26 0 0 0 3.941-6.307z"/>
        <filter id="M" width="184.8%" height="223.9%" x="-42.4%" y="-52.4%" filterUnits="objectBoundingBox">
            <feOffset dy="1" in="SourceAlpha" result="shadowOffsetOuter1"/>
            <feGaussianBlur in="shadowOffsetOuter1" result="shadowBlurOuter1" stdDeviation="2"/>
            <feColorMatrix in="shadowBlurOuter1" values="0 0 0 0 0 0 0 0 0 0 0 0 0 0 0 0 0 0 0.1 0"/>
        </filter>
    </defs>
    <g fill="none" fill-rule="evenodd" transform="rotate(-90 22 22)">
        <rect width="84" height="44" x="-20" y="20" fill="#E1E5E6" rx="22" transform="rotate(90 22 42)"/>
        <rect width="73.648" height="33.66" x="-15" y="25" fill="#D4D8D9" rx="16.83" transform="rotate(90 22 42)"/>
        <g transform="rotate(-180 19.705 21.205)">
            <use fill="#000" filter="url(#a)" xlink:href="#b"/>
            <use fill="#81CC7A" xlink:href="#b"/>
        </g>
        <path fill="#81CC7A" d="M25.723 26.81a5.26 5.26 0 0 0-5.26 5.26c0 1.777 1.478 4.828 4.434 9.153a1 1 0 0 0 1.651 0c2.956-4.325 4.434-7.376 4.434-9.154a5.26 5.26 0 0 0-5.26-5.26z"/>
        <g transform="rotate(-180 19.705 21.205)">
            <use fill="#000" filter="url(#c)" xlink:href="#d"/>
            <use fill="#81CC7A" xlink:href="#d"/>
        </g>
        <path fill="#81CC7A" d="M21.757 25.035a5.26 5.26 0 0 0-7.301 1.42c-.994 1.473-1.475 4.83-1.443 10.067a1 1 0 0 0 1.369.923c4.869-1.932 7.8-3.635 8.794-5.109a5.26 5.26 0 0 0-1.419-7.3z"/>
        <g transform="rotate(-180 19.705 21.205)">
            <use fill="#000" filter="url(#e)" xlink:href="#f"/>
            <use fill="#81CC7A" xlink:href="#f"/>
        </g>
        <g transform="rotate(-180 19.705 21.205)">
            <use fill="#000" filter="url(#g)" xlink:href="#h"/>
            <use fill="#81CC7A" xlink:href="#h"/>
        </g>
        <path fill="#81CC7A" d="M22.003 28.084a5.26 5.26 0 0 0-5.613-4.88c-1.774.124-4.714 1.811-8.822 5.062a1 1 0 0 0 .115 1.647c4.52 2.647 7.667 3.908 9.44 3.784a5.26 5.26 0 0 0 4.88-5.613z"/>
        <g transform="rotate(-180 19.705 21.205)">
            <use fill="#000" filter="url(#i)" xlink:href="#j"/>
            <use fill="#81CC7A" xlink:href="#j"/>
        </g>
        <g transform="rotate(-180 19.705 21.205)">
            <use fill="#000" filter="url(#k)" xlink:href="#l"/>
            <use fill="#81CC7A" xlink:href="#l"/>
        </g>
        <path fill="#81CC7A" d="M21.262 23.856a5.26 5.26 0 0 0 .26-7.434c-1.213-1.3-4.375-2.524-9.486-3.67a1 1 0 0 0-1.208 1.126c.788 5.178 1.788 8.418 3 9.718a5.26 5.26 0 0 0 7.434.26z"/>
        <g transform="rotate(-180 19.705 21.205)">
            <use fill="#000" filter="url(#m)" xlink:href="#n"/>
            <use fill="#81CC7A" xlink:href="#n"/>
        </g>
        <path fill="#81CC7A" d="M24.5 24.41a5.26 5.26 0 0 0 4.372-6.017c-.278-1.756-2.215-4.538-5.81-8.347h-.001a1 1 0 0 0-1.63.259c-2.244 4.733-3.226 7.978-2.948 9.734a5.26 5.26 0 0 0 6.017 4.372z"/>
        <g transform="rotate(-180 19.705 21.205)">
            <use fill="#000" filter="url(#o)" xlink:href="#p"/>
            <use fill="#81CC7A" xlink:href="#p"/>
        </g>
        <g transform="rotate(-180 19.705 21.205)">
            <use fill="#000" filter="url(#q)" xlink:href="#r"/>
            <use fill="#81CC7A" xlink:href="#r"/>
        </g>
        <path fill="#81CC7A" d="M22.322 24.9a5.26 5.26 0 0 0 7.184 1.925c1.54-.889 3.444-3.694 5.71-8.416a1 1 0 0 0-.825-1.43c-5.223-.398-8.604-.152-10.144.737a5.26 5.26 0 0 0-1.925 7.184z"/>
        <g transform="rotate(-180 19.705 21.205)">
            <use fill="#000" filter="url(#s)" xlink:href="#t"/>
            <use fill="#81CC7A" xlink:href="#t"/>
        </g>
        <g>
            <g transform="matrix(-1 0 0 1 39.41 41.742)">
                <use fill="#000" filter="url(#u)" xlink:href="#v"/>
                <use fill="#81CC7A" xlink:href="#v"/>
            </g>
            <path fill="#81CC7A" d="M25.723 57.341a5.26 5.26 0 0 1-5.26-5.259c0-1.778 1.478-4.83 4.434-9.153a1 1 0 0 1 1.651 0c2.956 4.324 4.434 7.375 4.434 9.153a5.26 5.26 0 0 1-5.26 5.26z"/>
            <g transform="matrix(-1 0 0 1 39.41 41.742)">
                <use fill="#000" filter="url(#w)" xlink:href="#x"/>
                <use fill="#81CC7A" xlink:href="#x"/>
            </g>
            <path fill="#81CC7A" d="M21.757 59.116a5.26 5.26 0 0 1-7.301-1.42c-.994-1.473-1.475-4.83-1.443-10.067a1 1 0 0 1 1.369-.923c4.869 1.932 7.8 3.635 8.794 5.109a5.26 5.26 0 0 1-1.419 7.301z"/>
            <g transform="matrix(-1 0 0 1 39.41 41.742)">
                <use fill="#000" filter="url(#y)" xlink:href="#z"/>
                <use fill="#81CC7A" xlink:href="#z"/>
            </g>
            <g transform="matrix(-1 0 0 1 39.41 41.742)">
                <use fill="#000" filter="url(#A)" xlink:href="#B"/>
                <use fill="#81CC7A" xlink:href="#B"/>
            </g>
            <path fill="#81CC7A" d="M22.003 56.067a5.26 5.26 0 0 1-5.613 4.88c-1.774-.124-4.714-1.811-8.822-5.061a1 1 0 0 1 .115-1.647c4.52-2.648 7.667-3.909 9.44-3.785a5.26 5.26 0 0 1 4.88 5.613z"/>
            <g transform="matrix(-1 0 0 1 39.41 41.742)">
                <use fill="#000" filter="url(#C)" xlink:href="#D"/>
                <use fill="#81CC7A" xlink:href="#D"/>
            </g>
            <g transform="matrix(-1 0 0 1 39.41 41.742)">
                <use fill="#000" filter="url(#E)" xlink:href="#F"/>
                <use fill="#81CC7A" xlink:href="#F"/>
            </g>
            <path fill="#81CC7A" d="M21.262 60.296a5.26 5.26 0 0 1 .26 7.433c-1.213 1.3-4.375 2.524-9.486 3.67a1 1 0 0 1-1.208-1.126c.788-5.178 1.788-8.417 3-9.718a5.26 5.26 0 0 1 7.434-.26z"/>
            <g transform="matrix(-1 0 0 1 39.41 41.742)">
                <use fill="#000" filter="url(#G)" xlink:href="#H"/>
                <use fill="#81CC7A" xlink:href="#H"/>
            </g>
            <path fill="#81CC7A" d="M24.5 59.74a5.26 5.26 0 0 1 4.372 6.018c-.278 1.756-2.215 4.538-5.81 8.347h-.001a1 1 0 0 1-1.63-.258c-2.244-4.734-3.226-7.979-2.948-9.735A5.26 5.26 0 0 1 24.5 59.74z"/>
            <g transform="matrix(-1 0 0 1 39.41 41.742)">
                <use fill="#000" filter="url(#I)" xlink:href="#J"/>
                <use fill="#81CC7A" xlink:href="#J"/>
            </g>
            <g transform="matrix(-1 0 0 1 39.41 41.742)">
                <use fill="#000" filter="url(#K)" xlink:href="#L"/>
                <use fill="#81CC7A" xlink:href="#L"/>
            </g>
            <path fill="#81CC7A" d="M22.322 59.25a5.26 5.26 0 0 1 7.184-1.924c1.54.889 3.444 3.694 5.71 8.416a1 1 0 0 1-.825 1.43c-5.223.398-8.604.152-10.144-.737a5.26 5.26 0 0 1-1.925-7.184z"/>
            <g transform="matrix(-1 0 0 1 39.41 41.742)">
                <use fill="#000" filter="url(#M)" xlink:href="#N"/>
                <use fill="#81CC7A" xlink:href="#N"/>
            </g>
        </g>
    </g>
</svg>
