<svg height="9" viewBox="0 0 16 9" width="16" xmlns="http://www.w3.org/2000/svg"><g id="sofa" fill="none" fill-rule="evenodd" stroke="#000" stroke-width=".5"><path d="m3.12.25a.25.25 0 0 0 -.25.25v7.409c0 .138.112.25.25.25h10.13a.25.25 0 0 0 .25-.25v-7.409a.25.25 0 0 0 -.25-.25z"/><path d="m3.12 4.557a.25.25 0 0 0 -.25.25v3.205c0 .138.112.25.25.25h10.13a.25.25 0 0 0 .25-.25v-3.205a.25.25 0 0 0 -.25-.25z"/><rect height="2.303" rx=".5" transform="matrix(0 1 -1 0 20.305 -8.887)" width="5.065" x="12.064" y="4.557"/><rect height="2.303" rx=".5" transform="matrix(0 1 -1 0 7.438 3.98)" width="5.065" x="-.804" y="4.557"/></g></svg>